<?xml version="1.0" encoding="UTF-8"?>
<!-- Generated by Pixelmator Pro 3.3.11 -->
<svg width="144" height="144" viewBox="0 0 144 144" xmlns="http://www.w3.org/2000/svg">
    <linearGradient id="linearGradient1" x1="0.243" y1="6.528" x2="151.461" y2="157.746" gradientUnits="userSpaceOnUse">
        <stop offset="0" stop-color="#68686f" stop-opacity="1"/>
        <stop offset="1" stop-color="#8e8e93" stop-opacity="1"/>
    </linearGradient>
    <path id="Traado" fill="url(#linearGradient1)" stroke="none" d="M 128.717987 99.848999 C 125.616005 106.715996 124.130997 109.788002 120.147003 115.856995 C 114.582001 124.332001 106.722 134.910004 97.004997 134.981995 C 88.362 135.054001 86.133003 129.341995 74.403 129.438004 C 62.673004 129.494995 60.230999 135.087006 51.579002 135 C 41.862 134.912994 34.425003 125.381996 28.854 116.921997 C 13.275001 93.188995 11.631001 65.375999 21.261 50.573997 C 28.071001 40.080002 38.853001 33.917999 48.972 33.917999 C 59.279999 33.917999 65.757004 39.582001 74.279999 39.582001 C 82.548004 39.582001 87.584999 33.903 99.506996 33.903 C 108.522003 33.903 118.056 38.813995 124.869003 47.292 C 102.584999 59.501999 106.203003 91.332001 128.717987 99.848999 Z"/>
    <linearGradient id="linearGradient2" x1="51.57" y1="-12.066" x2="108.87" y2="45.234" gradientUnits="userSpaceOnUse">
        <stop offset="0" stop-color="#68686f" stop-opacity="1"/>
        <stop offset="1" stop-color="#8e8e93" stop-opacity="1"/>
    </linearGradient>
    <path id="path1" fill="url(#linearGradient2)" stroke="none" d="M 89.403 24.380997 C 93.686996 18.882004 96.936005 11.126999 95.757004 3.216003 C 88.766998 3.692993 80.595001 8.154007 75.821999 13.934998 C 71.499001 19.196999 67.910995 27.014999 69.309006 34.578003 C 76.931999 34.820999 84.821999 30.278999 89.403 24.380997 Z"/>
</svg>
