<svg width="800" height="800" viewBox="0 0 800 800" fill="none" xmlns="http://www.w3.org/2000/svg">
<path d="M104.272 627.472C95.05 627.472 86.4266 625.048 79.0609 620.789L296.325 431.442L316.605 449.089C333.578 463.839 354.823 471.308 375.87 471.308C397.02 471.308 418.266 463.839 435.239 449.089L455.509 431.442L529.063 495.564C537.381 481.547 547.717 468.917 559.708 458.005L492.375 399.338L698.402 219.594V418.162C717.558 421.656 735.52 428.506 751.739 438.084V195.053C751.739 188.172 751.067 181.362 749.808 174.773C746.409 157.703 738.845 142.083 728.28 129.178C726.045 126.366 723.716 123.848 721.186 121.331C702.47 102.509 676.18 90.7687 647.464 90.7687H104.272C75.5578 90.7687 49.3719 102.509 30.55 121.331C28.0313 123.848 25.7031 126.366 23.4688 129.178C12.8938 142.083 5.32969 157.703 2.03594 174.773C0.671875 181.362 0 188.172 0 195.053V576.556C0 591.192 3.10469 605.261 8.63438 617.966C13.7641 630.094 21.3391 641.067 30.55 650.267C32.8797 652.597 35.2078 654.736 37.7266 656.867C55.7719 671.806 79.0609 680.83 104.272 680.83H542.523C529.839 665.155 519.967 647.131 513.755 627.47H104.272V627.472ZM68.2766 159.058C77.5922 149.752 90.1094 144.119 104.272 144.119H647.467C661.631 144.119 674.252 149.753 683.462 159.058C685.098 160.716 686.653 162.562 688.027 164.398L403.325 412.527C395.467 419.409 385.763 422.809 375.87 422.809C366.072 422.809 356.377 419.409 348.414 412.527L63.8281 164.294C65.0875 162.458 66.6406 160.716 68.2766 159.058ZM53.3375 576.558V219.498L259.375 399.234L53.4422 578.781C53.3375 578.1 53.3375 577.334 53.3375 576.558Z" fill="#77777E"/>
<path d="M669.195 447.631C596.953 447.631 538.411 506.194 538.411 578.436C538.411 650.667 596.953 709.23 669.195 709.23C741.448 709.23 800 650.667 800 578.436C800 506.192 741.448 447.631 669.195 447.631ZM689.422 640.994H657.655V552.836H657.277L634.239 563.716L629.433 535.872L661.705 521.12H689.423L689.422 640.994Z" fill="#77777E"/>
</svg>
