<svg width="800" height="800" viewBox="0 0 800 800" fill="none" xmlns="http://www.w3.org/2000/svg">
<path fill-rule="evenodd" clip-rule="evenodd" d="M251.6 719.992C553.48 719.992 718.6 473.734 718.6 260.207C718.6 253.197 718.6 246.239 718.12 239.308C750.24 216.467 777.96 188.106 800 155.656C770.08 168.731 738.28 177.305 705.76 181.086C740 160.883 765.64 129.143 777.92 91.691C745.68 110.515 710.44 123.801 673.68 130.929C611.52 65.8705 507.56 62.7184 441.44 123.918C398.84 163.378 380.72 222.213 393.96 278.332C262 271.794 139.04 210.439 55.68 109.504C12.12 183.344 34.4 277.772 106.52 325.187C80.4 324.439 54.84 317.515 32 304.992V307.043C32.04 383.955 87.12 450.181 163.68 465.421C139.52 471.919 114.16 472.862 89.6 468.175C111.08 534.022 172.72 579.122 242.92 580.421C184.8 625.395 113 649.816 39.08 649.738C26.04 649.698 13 648.949 0 647.414C75.08 694.829 162.4 719.993 251.6 719.875" fill="url(#paint0_radial_263_147)"/>
<defs>
<radialGradient id="paint0_radial_263_147" cx="0" cy="0" r="1" gradientUnits="userSpaceOnUse" gradientTransform="translate(1.22937e-05 399.839) scale(800 18637.6)">
<stop stop-color="#EBD665"/>
<stop offset="0.296875" stop-color="#DAAE83"/>
<stop offset="1" stop-color="#E43F3E"/>
</radialGradient>
</defs>
</svg>
