<svg width="800" height="800" viewBox="0 0 800 800" fill="none" xmlns="http://www.w3.org/2000/svg">
<path fill-rule="evenodd" clip-rule="evenodd" d="M327.941 614.89C333.677 625.64 339.42 635.327 344.91 643.91C286.582 630.793 235.969 597.29 200.946 551.277C224.06 538.26 253.665 524.767 289.255 514.893C299.371 554.567 313.641 588.077 327.941 614.89ZM372.06 591.36C359.637 568.07 347.187 538.983 338.217 504.52C357.527 501.653 378.14 500 400.003 500C421.863 500 442.477 501.653 461.783 504.517C452.813 538.983 440.363 568.07 427.94 591.36C417.98 610.037 408.057 624.947 400 635.857C391.943 624.947 382.02 610.037 372.06 591.36ZM325 400C325 419.47 326.31 437.95 328.62 455.397C350.897 451.98 374.713 450 400.003 450C425.29 450 449.107 451.977 471.38 455.397C473.69 437.947 475 419.47 475 400C475 380.53 473.69 362.053 471.38 344.603C449.107 348.02 425.29 350 400.003 350C374.713 350 350.897 348.02 328.62 344.603C326.31 362.05 325 380.53 325 400ZM279.563 334.293C276.659 354.927 275 376.847 275 400C275 423.153 276.659 445.073 279.563 465.707C237.113 477.103 201.961 493.173 174.775 508.637C158.899 475.787 150 438.933 150 400C150 361.067 158.899 324.215 174.774 291.363C201.957 306.824 237.11 322.895 279.563 334.293ZM338.217 295.482C357.527 298.347 378.14 300 400.003 300C421.863 300 442.477 298.348 461.783 295.482C452.813 261.018 440.363 231.931 427.94 208.64C417.98 189.965 408.057 175.052 400 164.144C391.943 175.052 382.02 189.965 372.06 208.639C359.637 231.93 347.187 261.018 338.217 295.482ZM520.437 334.297C523.34 354.93 525 376.85 525 400C525 423.153 523.34 445.07 520.437 465.703C562.887 477.103 598.04 493.173 625.227 508.637C641.1 475.783 650 438.93 650 400C650 361.07 641.1 324.216 625.227 291.364C598.043 306.826 562.89 322.897 520.437 334.297ZM599.053 248.726C575.937 261.744 546.333 275.235 510.747 285.109C500.63 245.435 486.36 211.923 472.06 185.111C466.323 174.359 460.58 164.675 455.09 156.09C513.42 169.208 564.033 202.712 599.053 248.726ZM289.255 285.108C253.667 275.234 224.063 261.742 200.946 248.724C235.969 202.711 286.582 169.208 344.907 156.09C339.42 164.675 333.677 174.359 327.941 185.11C313.641 211.922 299.371 245.434 289.255 285.108ZM510.747 514.89C500.63 554.567 486.36 588.077 472.06 614.89C466.323 625.64 460.58 635.327 455.09 643.91C513.42 630.793 564.033 597.287 599.057 551.273C575.94 538.257 546.337 524.767 510.747 514.89ZM400 700C565.687 700 700 565.687 700 400C700 234.315 565.687 100 400 100C234.315 100 100 234.315 100 400C100 565.687 234.315 700 400 700Z" fill="url(#paint0_radial_263_106)"/>
<defs>
<radialGradient id="paint0_radial_263_106" cx="0" cy="0" r="1" gradientUnits="userSpaceOnUse" gradientTransform="translate(100 399.852) scale(600 17473)">
<stop stop-color="#EBD665"/>
<stop offset="0.296875" stop-color="#DAAE83"/>
<stop offset="1" stop-color="#E43F3E"/>
</radialGradient>
</defs>
</svg>
